<svg xmlns="http://www.w3.org/2000/svg" viewBox="0 0 250.00 110.00">
  <style>
    .key-bg { fill: #f5f5f5; stroke: #d4d4d4; stroke-width: 1; }
    .key-index { fill: #171717; font-family: ui-monospace, SFMono-Regular, "SF Mono", Menlo, Consolas, "Liberation Mono", monospace; font-weight: 700; text-anchor: middle; dominant-baseline: central; }
    .key-part { font-family: system-ui, -apple-system, BlinkMacSystemFont, "Segoe UI", Roboto, sans-serif; text-anchor: middle; dominant-baseline: central; }
    @media (prefers-color-scheme: dark) {
      .key-bg { fill: #2a2a2a; stroke: #404040; }
      .key-index { fill: #e5e5e5; }
    }
  </style>
  <g>
    <path class="key-bg" d="M 26.00,22.00 L 84.00,22.00 Q 88.00,22.00 88.00,26.00 L 88.00,84.00 Q 88.00,88.00 84.00,88.00 L 26.00,88.00 Q 22.00,88.00 22.00,84.00 L 22.00,26.00 Q 22.00,22.00 26.00,22.00 Z" />
    <path class="key-bg" d="M 96.00,22.00 L 154.00,22.00 Q 158.00,22.00 158.00,26.00 L 158.00,84.00 Q 158.00,88.00 154.00,88.00 L 96.00,88.00 Q 92.00,88.00 92.00,84.00 L 92.00,26.00 Q 92.00,22.00 96.00,22.00 Z" />
    <path class="key-bg" d="M 166.00,22.00 L 224.00,22.00 Q 228.00,22.00 228.00,26.00 L 228.00,84.00 Q 228.00,88.00 224.00,88.00 L 166.00,88.00 Q 162.00,88.00 162.00,84.00 L 162.00,26.00 Q 162.00,22.00 166.00,22.00 Z" />
  </g>
  <g>
    <text class="key-index" x="55.00" y="55.00" font-size="36">0</text>
    <text class="key-index" x="125.00" y="55.00" font-size="36">1</text>
    <text class="key-index" x="195.00" y="55.00" font-size="36">2</text>
  </g>
</svg>
